<svg xmlns="http://www.w3.org/2000/svg" xmlns:xlink="http://www.w3.org/1999/xlink" version="1.1" x="0px" y="0px" viewBox="0 0 100 125" enable-background="new 0 0 100 100" xml:space="preserve"><g><path d="M94.37,66.443c-0.4-1.607-2.033-2.586-3.637-2.186l-7.94,1.98c2.454-5,3.752-10.539,3.752-16.146   c0-20.209-16.442-36.651-36.652-36.651c-20.21,0-36.652,16.442-36.652,36.651c0,20.21,16.442,36.651,36.652,36.651   c5.271,0,10.36-1.096,15.125-3.257c1.509-0.685,2.177-2.463,1.493-3.972c-0.684-1.508-2.459-2.175-3.972-1.493   c-3.981,1.806-8.236,2.722-12.647,2.722c-16.901,0-30.652-13.75-30.652-30.651c0-3.849,0.72-7.532,2.021-10.929   c0.671,2.161,1.857,4.143,3.502,5.788c2.669,2.67,6.219,4.14,9.994,4.14c3.775,0,7.324-1.47,9.993-4.14   c5.51-5.51,5.51-14.476,0-19.987h0c-1.645-1.646-3.627-2.832-5.788-3.502c3.397-1.301,7.08-2.021,10.929-2.021   c16.902,0,30.652,13.75,30.652,30.651c0,4.718-1.099,9.375-3.173,13.574l-2.181-8.746c-0.401-1.607-2.031-2.586-3.637-2.186   c-1.608,0.401-2.586,2.029-2.186,3.637l3.828,15.351c0.341,1.364,1.563,2.275,2.909,2.275c0.24,0,0.484-0.029,0.728-0.09   l15.351-3.827C93.792,69.679,94.771,68.051,94.37,66.443z M40.509,40.708c-1.536,1.536-3.578,2.382-5.75,2.382   c-2.173,0-4.215-0.846-5.751-2.383c-1.536-1.536-2.382-3.578-2.382-5.75s0.846-4.215,2.382-5.751   c1.586-1.585,3.668-2.378,5.751-2.378c2.083,0,4.165,0.792,5.751,2.378h0C43.68,32.377,43.681,37.537,40.509,40.708z"/></g><text x="0" y="115" fill="#000000" font-size="5px" font-weight="bold" font-family="'Helvetica Neue', Helvetica, Arial-Unicode, Arial, Sans-serif">Created by Roy Verhaag</text><text x="0" y="120" fill="#000000" font-size="5px" font-weight="bold" font-family="'Helvetica Neue', Helvetica, Arial-Unicode, Arial, Sans-serif">from the Noun Project</text></svg>