<?xml version="1.0" encoding="UTF-8" standalone="no"?>
<!-- Created with Inkscape (http://www.inkscape.org/) -->

<svg
   xmlns:dc="http://purl.org/dc/elements/1.1/"
   xmlns:cc="http://creativecommons.org/ns#"
   xmlns:rdf="http://www.w3.org/1999/02/22-rdf-syntax-ns#"
   xmlns:svg="http://www.w3.org/2000/svg"
   xmlns="http://www.w3.org/2000/svg"
   xmlns:sodipodi="http://sodipodi.sourceforge.net/DTD/sodipodi-0.dtd"
   xmlns:inkscape="http://www.inkscape.org/namespaces/inkscape"
   width="210mm"
   height="297mm"
   viewBox="0 0 210 297"
   version="1.1"
   id="svg3738"
   inkscape:version="0.92.4 5da689c313, 2019-01-14"
   sodipodi:docname="scrum.svg">
  <defs
     id="defs3732" />
  <sodipodi:namedview
     id="base"
     pagecolor="#ffffff"
     bordercolor="#666666"
     borderopacity="1.0"
     inkscape:pageopacity="0.0"
     inkscape:pageshadow="2"
     inkscape:zoom="0.35"
     inkscape:cx="400"
     inkscape:cy="560"
     inkscape:document-units="mm"
     inkscape:current-layer="layer1"
     showgrid="false"
     inkscape:window-width="1360"
     inkscape:window-height="739"
     inkscape:window-x="0"
     inkscape:window-y="0"
     inkscape:window-maximized="1" />
  <metadata
     id="metadata3735">
    <rdf:RDF>
      <cc:Work
         rdf:about="">
        <dc:format>image/svg+xml</dc:format>
        <dc:type
           rdf:resource="http://purl.org/dc/dcmitype/StillImage" />
        <dc:title></dc:title>
      </cc:Work>
    </rdf:RDF>
  </metadata>
  <g
     inkscape:label="Camada 1"
     inkscape:groupmode="layer"
     id="layer1">
    <g
       transform="matrix(0.93473047,0,0,1.0896112,52.473897,82.158382)"
       id="g4">
      <path
         inkscape:connector-curvature="0"
         d="m 94.37,66.443 c -0.4,-1.607 -2.033,-2.586 -3.637,-2.186 l -7.94,1.98 c 2.454,-5 3.752,-10.539 3.752,-16.146 0,-20.209 -16.442,-36.651 -36.652,-36.651 -20.21,0 -36.652,16.442 -36.652,36.651 0,20.21 16.442,36.651 36.652,36.651 5.271,0 10.36,-1.096 15.125,-3.257 1.509,-0.685 2.177,-2.463 1.493,-3.972 -0.684,-1.508 -2.459,-2.175 -3.972,-1.493 -3.981,1.806 -8.236,2.722 -12.647,2.722 -16.901,0 -30.652,-13.75 -30.652,-30.651 0,-3.849 0.72,-7.532 2.021,-10.929 0.671,2.161 1.857,4.143 3.502,5.788 2.669,2.67 6.219,4.14 9.994,4.14 3.775,0 7.324,-1.47 9.993,-4.14 5.51,-5.51 5.51,-14.476 0,-19.987 v 0 c -1.645,-1.646 -3.627,-2.832 -5.788,-3.502 3.397,-1.301 7.08,-2.021 10.929,-2.021 16.902,0 30.652,13.75 30.652,30.651 0,4.718 -1.099,9.375 -3.173,13.574 l -2.181,-8.746 c -0.401,-1.607 -2.031,-2.586 -3.637,-2.186 -1.608,0.401 -2.586,2.029 -2.186,3.637 l 3.828,15.351 c 0.341,1.364 1.563,2.275 2.909,2.275 0.24,0 0.484,-0.029 0.728,-0.09 l 15.351,-3.827 c 1.61,-0.4 2.589,-2.028 2.188,-3.636 z M 40.509,40.708 c -1.536,1.536 -3.578,2.382 -5.75,2.382 -2.173,0 -4.215,-0.846 -5.751,-2.383 -1.536,-1.536 -2.382,-3.578 -2.382,-5.75 0,-2.172 0.846,-4.215 2.382,-5.751 1.586,-1.585 3.668,-2.378 5.751,-2.378 2.083,0 4.165,0.792 5.751,2.378 v 0 c 3.17,3.171 3.171,8.331 -10e-4,11.502 z"
         id="path2" />
    </g>
  </g>
</svg>
